<?xml version="1.0" standalone="no"?>
<!DOCTYPE svg PUBLIC "-//W3C//DTD SVG 20010904//EN"
 "http://www.w3.org/TR/2001/REC-SVG-20010904/DTD/svg10.dtd">
<svg version="1.0" xmlns="http://www.w3.org/2000/svg"
 width="100.000000pt" height="100.000000pt" viewBox="0 0 100.000000 100.000000"
 preserveAspectRatio="xMidYMid meet">
<metadata>
Created by potrace 1.11, written by Peter Selinger 2001-2013
</metadata>
<g transform="translate(0.000000,100.000000) scale(0.100000,-0.100000)"
fill="#000000" stroke="none">
<path d="M411 985 c-209 -46 -354 -194 -397 -409 -14 -69 -14 -83 1 -157 23
-118 58 -183 139 -265 82 -82 152 -119 268 -142 71 -14 86 -14 160 1 215 42
359 184 404 397 54 260 -124 518 -399 574 -89 19 -92 19 -176 1z m197 -91 c7
-43 12 -48 26 -29 10 14 16 16 34 6 25 -13 26 -15 11 -42 -12 -23 -31 -16 -22
9 6 14 4 15 -8 5 -11 -9 -25 -9 -59 0 -25 6 -47 12 -49 13 -2 2 7 17 19 34 24
33 43 35 48 4z m-242 -2 c0 -4 8 -23 16 -42 15 -33 14 -61 -2 -43 -13 15 -39
91 -33 97 7 6 17 -1 19 -12z m135 2 c-2 -5 -6 -17 -9 -26 -2 -10 -8 -18 -12
-18 -9 0 -21 41 -14 51 6 10 40 4 35 -7z m-49 -19 c6 -30 2 -35 -29 -35 -28 0
-40 24 -23 45 19 23 47 18 52 -10z m-103 -62 c-16 -19 -53 -12 -57 10 -2 10 5
25 15 32 16 13 20 12 36 -7 13 -16 15 -24 6 -35z m-70 1 c29 -36 14 -53 -15
-18 -13 16 -23 32 -24 37 0 15 19 6 39 -19z m469 13 c9 -10 7 -19 -4 -35 -12
-18 -19 -20 -35 -12 -19 10 -26 40 -12 53 11 11 40 8 51 -6z m52 -32 c-7 -9
-8 -15 -1 -20 7 -4 7 -12 -2 -25 -14 -23 -42 -27 -34 -6 4 10 1 13 -9 9 -22
-8 -17 8 13 39 25 27 55 30 33 3z m-163 -20 c60 -30 117 -89 146 -154 33 -70
30 -189 -5 -256 -75 -143 -237 -209 -379 -156 -153 58 -237 218 -194 367 55
191 257 284 432 199z m-370 -1 c7 -20 -22 -45 -43 -37 -14 5 -19 35 -7 46 12
13 44 7 50 -9z m-69 -40 c25 -7 29 -35 8 -53 -26 -22 -83 29 -59 52 8 8 21 9
51 1z m-119 -80 c-38 -111 -32 -246 16 -358 6 -13 5 -17 -3 -13 -6 4 -20 36
-32 72 -36 109 -29 231 20 338 22 46 21 24 -1 -39z m799 43 c2 -10 -7 -26 -20
-37 -23 -19 -23 -19 -40 1 -23 27 -23 34 5 47 30 15 51 11 55 -11z m-711 -65
c15 -9 6 -49 -13 -56 -20 -7 -43 20 -37 44 5 20 28 26 50 12z m723 -12 c13
-24 8 -36 -20 -43 -15 -4 -23 1 -29 16 -16 41 29 65 49 27z m16 -78 c4 -24
-13 -36 -43 -29 -15 3 -14 6 7 15 24 10 24 11 3 11 -25 1 -31 16 -10 24 23 10
40 2 43 -21z m-746 8 c0 -5 -10 -10 -22 -11 -23 0 -23 0 1 -10 30 -12 14 -34
-18 -24 -20 6 -28 34 -14 48 10 11 53 8 53 -3z m759 -64 c18 -21 -14 -37 -45
-22 -30 14 -30 23 -1 29 12 2 25 5 28 6 4 0 12 -5 18 -13z m-761 -23 c-5 -49
-57 -40 -58 10 0 12 8 17 31 17 27 0 30 -3 27 -27z m740 -37 c5 -25 -12 -39
-37 -31 -24 7 -27 25 -9 43 17 17 42 11 46 -12z m-731 -20 c-4 -13 -54 -32
-62 -24 -3 3 -3 12 0 20 7 17 68 21 62 4z m21 -57 c2 -13 1 -21 -4 -17 -4 4
-13 3 -19 -2 -9 -7 -16 -5 -25 5 -11 13 -10 18 6 30 25 19 38 14 42 -16z m681
22 c21 -13 4 -53 -22 -49 -11 2 -22 9 -25 17 -3 9 2 11 19 7 22 -6 23 -6 7 7
-10 8 -18 17 -18 21 0 9 23 7 39 -3z m-659 -50 c0 -10 -45 -41 -60 -41 -20 0
-10 19 18 34 32 18 42 19 42 7z m592 -68 c26 -23 23 -43 -8 -43 -22 0 -24 -3
-15 -14 24 -28 -7 -25 -34 4 -24 25 -26 30 -12 36 10 3 25 3 35 -1 14 -5 15
-4 5 6 -29 29 -2 41 29 12z m-532 -26 c0 -18 -36 -50 -50 -45 -7 2 -3 14 10
31 23 29 40 35 40 14z m44 -23 c9 -3 16 -13 16 -21 0 -13 -2 -13 -17 -2 -15
13 -15 12 -4 -9 6 -12 9 -27 6 -32 -9 -15 -41 -12 -55 5 -17 21 -5 31 16 14
16 -13 16 -12 5 9 -18 34 -3 50 33 36z m414 -20 c26 -18 29 -34 7 -34 -9 0
-18 -7 -21 -15 -10 -26 -32 -16 -37 18 -7 51 9 61 51 31z m-347 -14 c20 -11
23 -54 4 -70 -15 -12 -55 -1 -55 16 0 18 18 64 25 64 4 0 15 -5 26 -10z m273
-33 c11 -29 -2 -46 -32 -47 -17 0 -36 44 -28 65 10 26 49 14 60 -18z m-180 -3
c15 -40 0 -84 -19 -54 -4 6 -15 8 -26 5 -23 -8 -24 7 -3 40 19 29 39 32 48 9z
m58 -1 c17 -15 18 -15 18 1 0 31 25 11 28 -22 3 -34 -13 -43 -36 -20 -9 9 -12
8 -12 -6 0 -34 -25 -9 -28 27 -4 41 3 45 30 20z"/>
<path d="M415 870 c-3 -5 -1 -10 4 -10 6 0 11 5 11 10 0 6 -2 10 -4 10 -3 0
-8 -4 -11 -10z"/>
<path d="M310 830 c0 -5 5 -10 10 -10 6 0 10 5 10 10 0 6 -4 10 -10 10 -5 0
-10 -4 -10 -10z"/>
<path d="M710 810 c0 -5 5 -10 10 -10 6 0 10 5 10 10 0 6 -4 10 -10 10 -5 0
-10 -4 -10 -10z"/>
<path d="M400 763 c-103 -63 -139 -105 -165 -197 -14 -49 -15 -68 -6 -114 20
-98 67 -158 176 -222 52 -31 149 -32 217 -2 59 26 124 90 151 151 31 67 30
179 -2 245 -51 104 -134 157 -251 163 -68 3 -79 1 -120 -24z m117 -40 c5 -16
10 -50 12 -78 4 -83 23 -122 52 -104 11 7 11 9 1 9 -19 0 -6 16 26 33 15 7 44
24 65 36 l37 23 0 -21 c0 -12 -6 -21 -12 -22 -10 0 -10 -2 0 -6 14 -5 17 -33
3 -33 -5 0 -7 -9 -4 -19 3 -13 -1 -21 -14 -25 -10 -3 -5 -4 11 -2 l28 4 -4
-69 c-2 -37 -7 -71 -11 -76 -4 -4 -22 -1 -40 6 -52 20 -71 22 -58 7 9 -10 8
-15 -5 -20 -28 -11 -34 -7 -34 25 0 16 -4 28 -9 25 -5 -3 -11 4 -14 16 -10 38
-19 12 -18 -50 0 -46 -3 -61 -15 -66 -26 -10 -34 3 -34 50 0 41 -6 49 -32 45
-4 0 -10 8 -13 19 -4 14 -14 20 -33 19 -24 -2 -24 -2 -4 -6 12 -2 20 -9 17
-14 -4 -5 -1 -9 5 -9 6 0 8 -4 5 -10 -3 -5 -14 -10 -24 -10 -10 0 -32 -7 -47
-15 -37 -19 -54 -19 -54 0 0 8 -4 15 -9 15 -5 0 -9 26 -8 58 2 57 2 57 32 55
17 -1 22 1 13 3 -10 3 -18 14 -18 25 0 10 -4 19 -10 19 -5 0 -10 18 -10 41 l0
40 70 -38 c49 -27 70 -44 71 -58 0 -11 3 -14 6 -7 2 6 9 12 14 12 6 0 7 -21 3
-52 -5 -37 -4 -49 5 -44 7 5 11 41 11 101 0 92 16 195 31 195 4 0 11 -12 16
-27z"/>
<path d="M370 566 c0 -2 7 -7 16 -10 8 -3 12 -2 9 4 -6 10 -25 14 -25 6z"/>
<path d="M347 539 c7 -7 15 -10 18 -7 3 3 -2 9 -12 12 -14 6 -15 5 -6 -5z"/>
<path d="M640 540 c-9 -6 -10 -10 -3 -10 6 0 15 5 18 10 8 12 4 12 -15 0z"/>
<path d="M390 530 c0 -5 5 -10 11 -10 5 0 7 5 4 10 -3 6 -8 10 -11 10 -2 0 -4
-4 -4 -10z"/>
<path d="M540 489 c0 -11 4 -18 10 -14 5 3 7 12 3 20 -7 21 -13 19 -13 -6z"/>
<path d="M420 486 c0 -9 5 -16 10 -16 6 0 10 4 10 9 0 6 -4 13 -10 16 -5 3
-10 -1 -10 -9z"/>
<path d="M570 485 c0 -8 5 -15 10 -15 6 0 10 7 10 15 0 8 -4 15 -10 15 -5 0
-10 -7 -10 -15z"/>
<path d="M304 460 c0 -11 6 -20 12 -20 7 0 10 8 7 20 -3 11 -8 20 -12 20 -4 0
-7 -9 -7 -20z"/>
<path d="M350 460 c0 -11 4 -20 10 -20 5 0 7 6 4 14 -4 9 3 16 18 19 21 4 20
4 -4 6 -22 1 -28 -4 -28 -19z"/>
<path d="M623 473 c9 -2 17 -11 17 -19 0 -8 4 -14 9 -14 5 0 7 9 4 20 -3 13
-13 20 -27 19 -17 -1 -17 -2 -3 -6z"/>
<path d="M680 460 c0 -11 5 -20 10 -20 6 0 10 9 10 20 0 11 -4 20 -10 20 -5 0
-10 -9 -10 -20z"/>
<path d="M608 443 c7 -3 16 -2 19 1 4 3 -2 6 -13 5 -11 0 -14 -3 -6 -6z"/>
<path d="M355 420 c-3 -5 1 -10 10 -10 9 0 13 5 10 10 -3 6 -8 10 -10 10 -2 0
-7 -4 -10 -10z"/>
<path d="M630 420 c0 -5 5 -10 10 -10 6 0 10 5 10 10 0 6 -4 10 -10 10 -5 0
-10 -4 -10 -10z"/>
<path d="M135 610 c-3 -5 -1 -10 4 -10 6 0 11 5 11 10 0 6 -2 10 -4 10 -3 0
-8 -4 -11 -10z"/>
<path d="M120 460 c0 -5 5 -10 10 -10 6 0 10 5 10 10 0 6 -4 10 -10 10 -5 0
-10 -4 -10 -10z"/>
</g>
</svg>
