<?xml version="1.0" standalone="no"?>
<!DOCTYPE svg PUBLIC "-//W3C//DTD SVG 20010904//EN"
 "http://www.w3.org/TR/2001/REC-SVG-20010904/DTD/svg10.dtd">
<svg version="1.0" xmlns="http://www.w3.org/2000/svg"
 width="270.000000pt" height="270.000000pt" viewBox="0 0 270.000000 270.000000"
 preserveAspectRatio="xMidYMid meet">
<metadata>
Created by potrace 1.11, written by Peter Selinger 2001-2013
</metadata>
<g transform="translate(0.000000,270.000000) scale(0.100000,-0.100000)"
fill="#000000" stroke="none">
<path d="M1219 2696 c-2 -2 -26 -7 -54 -10 -515 -67 -966 -457 -1109 -961 -42
-150 -51 -215 -51 -380 1 -117 10 -239 20 -255 2 -4 7 -21 10 -38 3 -18 17
-69 31 -114 110 -348 364 -640 699 -803 102 -50 181 -77 310 -107 115 -26 363
-33 475 -13 41 7 89 16 106 19 134 25 368 134 499 234 176 134 296 275 392
462 111 217 152 393 149 635 -5 273 -73 503 -213 719 -75 113 -211 264 -287
315 -11 8 -23 18 -26 21 -11 15 -130 91 -200 127 -111 58 -278 116 -375 129
-16 3 -41 7 -55 11 -27 6 -315 14 -321 9z"/>
</g>
</svg>
